<svg width="65" height="196" viewBox="0 0 65 196" fill="none" xmlns="http://www.w3.org/2000/svg">
<mask id="mask0_1_9" style="mask-type:alpha" maskUnits="userSpaceOnUse" x="1" y="0" width="64" height="196">
<rect x="1" width="64" height="196" fill="#D9D9D9"/>
</mask>
<g mask="url(#mask0_1_9)">
<path d="M0.666667 189C0.666667 191.946 3.05448 194.333 6 194.333C8.94552 194.333 11.3333 191.946 11.3333 189C11.3333 186.054 8.94552 183.667 6 183.667C3.05448 183.667 0.666667 186.054 0.666667 189ZM38.8021 6.04454C38.2744 5.88155 37.7145 6.1772 37.5516 6.70488L34.8955 15.304C34.7325 15.8317 35.0282 16.3916 35.5559 16.5546C36.0835 16.7176 36.6434 16.422 36.8064 15.8943L39.1674 8.25058L46.8111 10.6115C47.3387 10.7745 47.8986 10.4788 48.0616 9.95116C48.2246 9.42347 47.929 8.86357 47.4013 8.70058L38.8021 6.04454ZM6 190C13.802 190 23.0228 184.525 31.5821 175.086C40.1811 165.603 48.264 151.961 53.7723 135.251C64.7947 101.813 65.5276 56.0306 39.3913 6.53307L37.6227 7.46693C63.4977 56.4694 62.7302 101.687 51.8729 134.624C46.4413 151.102 38.4896 164.491 30.1005 173.742C21.6718 183.037 12.9512 188 6 188V190Z" fill="url(#paint0_linear_1_9)"/>
</g>
<defs>
<linearGradient id="paint0_linear_1_9" x1="43.5081" y1="-6.5" x2="6.01572" y2="209.503" gradientUnits="userSpaceOnUse">
<stop stop-color="white" stop-opacity="0.75"/>
<stop offset="1" stop-color="white" stop-opacity="0.55"/>
</linearGradient>
</defs>
</svg>
